<svg width="289" height="432" viewBox="0 0 289 432" fill="none" xmlns="http://www.w3.org/2000/svg">
<path opacity="0.1" d="M211.6 69.0999C185.74 123.32 142.6 167.6 95.4201 204.79C91.4201 207.92 86.9601 212.44 88.6001 217.23C89.3801 219.51 91.4101 221.11 93.4001 222.46C112.71 235.59 138.67 237.92 160.4 229.25C182.13 220.58 199 201.43 206 179.13C209.31 168.46 210.43 157.21 213.6 146.5C218.75 129.13 229.06 113.83 236.96 97.4999C244.86 81.1699 250.43 62.4399 245.27 45.0699C245.02 43.86 244.414 42.7525 243.53 41.8899C241.59 40.3099 238.71 41.3299 236.53 42.5399C229.41 46.4699 220.58 50.2899 211.6 69.0999Z" fill="#F3F2E8"/>
<path opacity="0.1" d="M33.2803 259.76C51.3503 259.99 65.7503 274.67 82.9003 280.39C86.4603 281.58 90.2803 282.39 93.9703 281.72C101.62 280.34 107.18 271.89 105.44 264.32C104.51 260.32 101.92 256.9 99.4403 253.63C96.2603 249.51 93.0803 245.38 89.7903 241.35C87.0703 238 84.1803 234.64 80.3803 232.6C74.5903 229.5 67.4403 229.92 61.2603 232.12C52.1503 235.33 44.4603 242.23 33.2803 259.76Z" fill="#F3F2E8"/>
<path opacity="0.5" d="M287.15 417.41C280.766 406.499 272.415 396.866 262.52 389C260.72 387.5 258.89 386 257.06 384.56C255.06 381.987 253.077 379.423 251.11 376.87C245.48 369.64 240.11 362.78 234.75 355.8C228.43 347.94 222.18 340.03 215.75 332.23C211.51 327.23 207.15 322.42 202.9 317.46C192.23 305.01 181.26 292.19 171.34 279.72C164.54 271.16 155.98 258.07 154.76 256.2C152.33 252.46 150.01 249.6 147.41 246.26C144.559 242.543 141.469 239.015 138.16 235.7C135.357 233.275 132.383 231.056 129.26 229.06C131.283 229.35 133.286 229.761 135.26 230.29C151.56 235.22 162.19 224.29 165.66 221.18C169.107 217.619 172.27 213.794 175.12 209.74C177.054 206.951 178.779 204.023 180.28 200.98C183.245 195.436 185.304 189.454 186.38 183.26C187.38 177.49 187.01 171.76 188.38 166.79C190.94 158.83 195 151.6 199 144C201.52 139.2 203.78 134.27 205.83 129.25C207.579 124.96 208.954 120.527 209.94 116C210.51 113.07 210.94 110.12 211.3 107.16C212.04 101.44 212.06 95.6599 212.54 89.9099C212.9 85.5199 213.41 81.7899 214.1 77.6299C214.67 74.2799 215.42 70.9699 215.91 67.6299C216.291 65.5057 216.439 63.3462 216.35 61.1899C216.07 59.3699 215.1 57.5099 213.08 59.5799C211.9 60.9593 210.893 62.4771 210.08 64.0999C208.57 66.7399 207.15 69.4399 205.73 72.0999L200.59 81.2999C202.97 76.0699 205.34 70.8399 207.76 65.6199C210.58 59.3699 213.29 53.0599 216.07 46.7799C218.61 40.7799 220.63 34.6499 222.87 28.5699C223.75 25.9299 228.24 14.9499 224.99 15.8999C224.412 16.4815 223.939 17.158 223.59 17.8999C222.92 19.0699 222.27 20.2499 221.59 21.4299C218.84 26.2799 216.71 31.4299 214.43 36.4999C212.95 39.8099 211.38 43.0799 209.82 46.3499C209.21 47.6799 208.53 48.9999 207.99 50.3499L207.79 50.7399C200.97 64.4899 193.73 78.0499 186.65 91.6699C182.88 98.8699 179.39 106.22 175.48 113.35C172.095 119.402 168.25 125.186 163.98 130.65C161.6 133.65 159.3 136.81 156.7 139.65C154.211 142.1 151.594 144.416 148.86 146.59C143.13 150.89 137.07 154.78 131.73 159.59C125.73 164.96 120.47 171.07 114.73 176.74C108.59 182.81 102.16 188.59 95.5101 194.1C92.5101 196.63 85.5101 202.99 84.9001 200.92C84.7001 199.35 85.5501 196.24 86.0401 193.57C90.3501 195.16 96.0401 186.32 97.4801 180.33C98.0364 177.775 98.2948 175.164 98.2501 172.55C98.152 169.79 97.8174 167.043 97.2501 164.34C96.666 161.284 95.8572 158.276 94.8301 155.34C93.6301 152.02 92.1301 148.82 90.7601 145.58C88.4521 140.733 86.746 135.622 85.6801 130.36C85.1115 127.235 84.8304 124.066 84.8401 120.89C84.8901 117.52 85.1301 114.15 85.2501 110.78C85.6385 104.944 85.0916 99.0833 83.6301 93.4199C81.3301 83.3099 76.9301 73.8199 71.8801 64.7999C68.5743 59.1289 64.6613 53.8344 60.2101 49.0099C57.8801 46.3299 55.7201 43.5199 53.3101 40.9099C51.7101 39.1432 50.1368 37.3466 48.5901 35.5199C47.1988 33.9765 45.9284 32.3283 44.7901 30.5899C43.8729 29.0844 43.2391 27.4237 42.9201 25.6899C42.4801 23.6899 42.6501 20.1299 40.2701 19.9299C39.4701 19.9299 39.1101 20.7599 38.8001 21.3899C38.4001 22.2099 38.0601 23.0599 37.7301 23.8999C36.6501 26.6799 35.6801 29.4899 34.7301 32.2999C31.9901 39.7799 29.2801 47.2999 26.2701 54.6599C24.4101 59.2599 22.4401 63.8199 20.7901 68.4999C21.0301 67.0699 21.3001 65.5899 21.6401 64.0199C23.1865 57.45 25.0724 50.9646 27.2901 44.5899C30.8501 34.5899 34.7701 24.5899 37.5301 14.3499C38.6101 10.2599 39.8001 6.18989 40.6601 2.03989C40.6823 1.93119 40.6795 1.81885 40.6517 1.71141C40.624 1.60398 40.5722 1.50428 40.5001 1.41989C40.4028 1.32401 40.2717 1.27026 40.1351 1.27026C39.9985 1.27026 39.8674 1.32401 39.7701 1.41989C39.4126 1.9225 39.1172 2.46644 38.8901 3.03989C38.1701 4.54989 37.4601 6.0399 36.7601 7.5799C30.9101 20.2799 24.5501 32.7699 20.0701 45.9999C17.9601 52.2899 16.9901 58.8499 16.0701 65.3899C15.0701 72.7899 14.4801 80.2199 13.9801 87.6699C13.1401 87.0399 12.5101 88.1399 12.3801 88.9199C10.8215 94.9609 9.92947 101.155 9.72013 107.39C9.62013 114.04 9.97013 120.7 10.3001 127.39C10.3238 128.642 10.6207 129.874 11.1701 131C10.6355 130.178 10.0511 129.39 9.42013 128.64C8.77013 127.83 7.50013 126.64 6.64013 127.86C6.44496 128.827 6.37438 129.815 6.43012 130.8C6.43012 132.62 6.50013 134.44 6.55013 136.26C7.24013 159 23.5501 172.85 27.5501 185.08C28.1455 186.946 28.5181 188.876 28.6601 190.83C28.9501 194.91 28.8701 198.35 27.4601 202.16C26.7508 203.831 26.1887 205.561 25.7801 207.33C23.8121 208.004 21.8968 208.822 20.0501 209.78C18.6053 210.489 17.1968 211.27 15.8301 212.12C13.806 213.475 11.9173 215.022 10.1901 216.74C6.87364 219.852 4.28239 223.655 2.60013 227.88C2.03012 229.361 1.61133 230.895 1.35013 232.46C1.08032 234.923 0.990082 237.403 1.08013 239.88C1.18013 242.24 1.08013 244.77 2.22013 246.88L2.55013 247.36C2.39206 247.444 2.25564 247.564 2.15154 247.709C2.04744 247.855 1.9785 248.023 1.95012 248.2C1.76689 248.821 1.66273 249.463 1.64013 250.11C1.68858 252.088 2.39199 253.994 3.64013 255.53C4.57017 256.629 5.57239 257.664 6.64013 258.63L6.50013 258.68C5.58013 259.22 6.42013 260.17 7.05013 260.55C7.69892 260.995 8.39273 261.37 9.12012 261.67C9.48012 262.67 9.12013 263.67 9.03013 264.99C8.93013 266.59 9.03013 268.2 8.91013 269.79C8.91013 270.41 8.47013 271.47 9.24013 271.79C9.72013 271.92 10.0901 271.5 10.4001 271.2L10.7701 270.82C10.8255 270.903 10.9057 270.965 10.9992 271C11.0926 271.034 11.1945 271.037 11.2901 271.01C11.7032 270.728 12.0765 270.391 12.4001 270.01C13.1301 269.28 13.8901 268.57 14.6501 267.86C15.7396 266.819 16.8811 265.835 18.0701 264.91C20.8316 263.103 23.9801 261.972 27.2601 261.61C29.0201 261.28 30.7601 260.86 32.5001 260.43C36.8601 259.35 45.2001 254.92 48.7801 254.37C50.692 254.418 52.5931 254.673 54.4501 255.13C54.9701 255.69 55.5001 256.25 56.0001 256.82C58.2092 259.311 60.6952 261.542 63.4101 263.47C67.7092 266.559 72.3833 269.089 77.3201 271C79.3201 271.85 81.5001 272.6 83.6501 273.33C88.7145 275.495 93.9038 277.355 99.1901 278.9C103.75 280.2 108.42 281.09 112.9 282.64C115.11 283.41 123.17 287.5 124.51 288.05C124.87 288.21 125.23 288.37 125.59 288.51C126.19 288.763 126.79 289.003 127.39 289.23H127.44C127.571 289.626 127.619 290.044 127.579 290.459C127.539 290.874 127.414 291.276 127.21 291.64C126.62 292.53 126.13 293.48 125.59 294.4C124.793 295.607 124.265 296.971 124.04 298.4C123.9 299.372 123.9 300.358 124.04 301.33C124.34 302.58 124.91 303.76 125.09 305.04C125.176 305.646 125.199 306.259 125.16 306.87C125.16 307.01 125.16 307.53 125.11 307.61C125.03 308.29 124.86 308.96 124.83 309.61C124.83 311.12 126.23 312.09 127.42 312.78C128.18 313.29 128.92 313.83 129.66 314.38C130.14 314.73 130.17 314.77 130.55 315.06C130.76 315.29 131.1 315.47 131.37 315.23L131.43 315.18C127.83 324.59 124.2 333.64 120.09 342.74C117.53 348.493 114.82 354.16 111.96 359.74C109.82 362.11 107.71 364.5 105.66 366.95C96.0455 378.276 87.3259 390.332 79.5801 403.01C76.5801 407.84 73.5801 412.64 70.7701 417.61C69.4601 419.925 68.2815 422.312 67.2401 424.76C66.6283 426.074 66.1427 427.444 65.7901 428.85C65.6752 429.209 65.6443 429.589 65.6998 429.962C65.7553 430.335 65.8957 430.69 66.1101 431C66.4084 431.162 66.7514 431.222 67.0871 431.172C67.4227 431.121 67.7328 430.963 67.9701 430.72C70.1442 428.848 72.1303 426.768 73.9001 424.51C77.5701 419.73 80.8001 414.64 84.1001 409.61C87.4001 404.58 90.5901 399.8 93.6601 394.78C97.5101 388.49 101.08 382.03 104.77 375.64C107.77 370.53 110.55 365.37 113.2 360.16C118.51 354.28 123.98 348.53 128.92 342.33C131.577 339.092 133.921 335.61 135.92 331.93C136.19 331.4 136.44 330.85 136.69 330.31C136.63 331.18 136.58 332.05 136.54 332.93C136.419 334.19 136.49 335.461 136.75 336.7C136.802 337.144 137.019 337.553 137.358 337.846C137.697 338.138 138.133 338.293 138.58 338.28C139.127 338.141 139.629 337.866 140.04 337.48C140.725 336.864 141.36 336.195 141.94 335.48C143.64 333.39 145.12 331.15 146.63 328.92C148.932 325.544 150.911 321.958 152.54 318.21L152.45 320.71C152.45 322.2 152.24 323.83 152.77 325.26C153.63 326.91 155.25 325.68 156.19 324.8C158.11 322.97 159.36 320.8 160.89 319.09C162.61 317.09 164.89 316.57 167.35 315.45C169.499 314.366 171.214 312.581 172.21 310.39C172.342 310.106 172.449 309.812 172.53 309.51C173.568 309.919 174.634 310.253 175.72 310.51C176.52 310.722 177.303 310.996 178.06 311.33C179.43 311.91 185.06 314.72 188.14 319.48C190.32 322.7 191.961 326.253 193 330C193.3 331.28 193.56 332.5 193.77 333.7C193.454 333.393 193.12 333.106 192.77 332.84C187.58 328.63 181.38 327.26 175.39 330.76C169.75 333.85 166.23 340.26 164.99 346.41C164.393 349.739 164.574 353.162 165.52 356.41C166.014 358.625 167.044 360.686 168.52 362.41C170.35 364.62 172.57 366.29 175.52 366.22C177.978 365.973 180.325 365.076 182.32 363.62C184.349 362.27 186.183 360.648 187.77 358.8C192.77 353.15 195.93 345.6 195.58 338.01C196.849 340.383 197.723 342.946 198.17 345.6C198.73 350.6 197.95 354.81 196.85 359.6C196.323 361.569 195.655 363.497 194.85 365.37C193.893 367.847 192.801 370.271 191.58 372.63C191.523 372.729 191.5 372.844 191.515 372.957C191.53 373.071 191.582 373.176 191.663 373.257C191.744 373.338 191.849 373.39 191.963 373.405C192.076 373.42 192.191 373.397 192.29 373.34C192.45 373.26 192.51 373.09 192.6 372.94C192.81 372.56 193.01 372.18 193.21 371.8C193.71 370.8 194.21 369.8 194.64 368.8C195.87 366.181 196.919 363.482 197.78 360.72C198.24 359.12 198.53 357.47 198.84 355.84C199.68 351.47 199.99 346.84 198.72 342.51C198.008 339.953 196.854 337.54 195.31 335.38C194.999 333.164 194.552 330.97 193.97 328.81C193.349 326.875 192.583 324.99 191.68 323.17C190.905 321.645 190.037 320.168 189.08 318.75C186.47 314.859 182.778 311.817 178.46 310C176.63 309.17 174.58 309.06 172.75 308.26C172.762 307.406 172.599 306.558 172.27 305.77C171.96 305.11 171.34 304.32 170.53 304.56C170.296 304.661 170.092 304.821 169.938 305.024C169.783 305.227 169.684 305.467 169.65 305.72C169.555 306.326 169.635 306.946 169.881 307.508C170.128 308.07 170.53 308.55 171.04 308.89L171.34 309.07C171.099 309.974 170.692 310.825 170.14 311.58C169.339 312.676 168.317 313.592 167.14 314.27C166.03 314.837 164.892 315.348 163.73 315.8C162.251 316.434 160.94 317.402 159.9 318.63C158.02 320.85 156.99 322.92 154.81 324.68L154.73 324.74C154.556 324.875 154.368 324.992 154.17 325.09H154.02H153.89C153.48 324.77 153.52 322.89 153.54 321.32C153.59 319.45 153.63 317.42 153.72 315.45C154.506 313.464 155.041 311.388 155.31 309.27C155.454 308.601 155.394 307.905 155.14 307.27C155.067 307.16 154.964 307.073 154.844 307.019C154.724 306.964 154.591 306.944 154.461 306.961C154.33 306.977 154.206 307.03 154.104 307.113C154.001 307.196 153.924 307.305 153.88 307.43C153.574 308.084 153.375 308.783 153.29 309.5C153.1 310.5 152.98 311.5 152.88 312.45C152.78 313.4 152.75 314.27 152.69 315.19C151.541 318.064 150.205 320.86 148.69 323.56C147.15 326.23 145.44 328.81 143.69 331.33C141.94 333.85 138.38 338.6 137.9 336.84C137.42 335.08 137.63 333.27 137.7 331.19C137.77 329.87 137.85 328.56 137.94 327.25C139.516 323.104 140.564 318.777 141.06 314.37C141.06 313.47 141.87 310.13 140.3 310.68C139.86 310.9 139.74 311.44 139.57 311.86C139.29 312.61 139.07 313.39 138.86 314.16C137.795 318.256 137.125 322.446 136.86 326.67C136.23 328.32 135.54 329.92 134.78 331.45C131.31 337.9 126.96 342.88 122.17 348.45C119.85 351.07 117.48 353.65 115.17 356.24C121.28 343.81 126.59 331.11 131.57 318.1C133.64 312.69 135.57 307.23 137.8 301.87C139.03 298.95 139.75 296.53 141.4 293.82C142.94 290.82 144.98 291.31 147.54 291.82C150.461 292.482 153.323 293.379 156.1 294.5C160.75 295.99 164.82 299.85 169.47 302.24C171.29 303.17 173.14 303 172.38 300.54C171.84 298.79 171.17 297.09 170.56 295.36C168.98 290.91 167.27 286.51 165.68 282.06C164.851 279.854 164.322 277.547 164.11 275.2C164.11 275.07 164.11 274.94 164.11 274.81C164.11 275.02 164.11 274.91 164.11 274.81L164.39 275.32C164.903 276.325 165.364 277.357 165.77 278.41C167.33 282.41 168.57 286.48 169.77 290.57C170.56 293.34 171.5 296.07 172.36 298.82C173.05 300.9 173.62 303.14 175.18 304.82C177.4 307.23 180.18 309.04 182.58 311.24C187.027 315.21 191.253 319.419 195.24 323.85C201.16 330.68 206.24 338.17 212.49 344.75C216.99 349.68 221.86 354.25 226.68 358.86C231.06 363.03 235.33 367.3 239.68 371.46C244.993 376.631 250.595 381.495 256.46 386.03C259.82 390.29 263.23 394.55 266.73 398.84C269.86 402.73 272.86 406.72 276.01 410.6C278.365 413.673 281.07 416.462 284.07 418.91C284.762 419.46 285.58 419.831 286.45 419.99C288 419.93 287.71 418.41 287.15 417.41ZM103 376.32C99.1201 383.05 95.3801 389.85 91.2401 396.42C88.5501 400.76 85.6701 404.99 82.9001 409.29C79.8201 414.05 76.1301 419.74 73.0801 423.8C71.3906 425.986 69.5026 428.011 67.4401 429.85C67.3581 429.929 67.2713 430.002 67.1801 430.07C67.1203 430.112 67.0567 430.149 66.9901 430.18H66.9001V430.1C66.8901 430.034 66.8901 429.966 66.9001 429.9C66.9292 429.327 67.0404 428.761 67.2301 428.22C69.8401 420.84 74.4901 413.72 78.8001 406.72C83.7871 398.381 89.1941 390.301 95.0001 382.51C99.5401 376.51 104.47 370.26 109.71 364.29C107.543 368.35 105.307 372.36 103 376.32ZM194.06 335.74C194.15 336.42 194.23 337.09 194.28 337.74C194.419 340.599 194.081 343.462 193.28 346.21C191.54 352.331 187.923 357.752 182.94 361.71C181.902 362.504 180.806 363.22 179.66 363.85C178.37 364.472 176.99 364.883 175.57 365.07C174.678 365.102 173.788 364.95 172.957 364.623C172.126 364.296 171.371 363.801 170.74 363.17C169.402 361.996 168.305 360.573 167.51 358.98C166.663 356.913 166.085 354.745 165.79 352.53C165.618 350.833 165.642 349.122 165.86 347.43C166.62 342.43 168.933 337.795 172.47 334.18C174.757 332.012 177.622 330.554 180.72 329.98C184.021 329.565 187.357 330.411 190.06 332.35C191.553 333.273 192.898 334.416 194.05 335.74H194.06ZM171 306.9C170.907 306.71 170.856 306.502 170.85 306.29C170.84 306.237 170.84 306.183 170.85 306.13V306.13C170.85 306.13 170.85 305.95 170.85 306.08V305.95L170.79 305.88C170.7 305.83 170.73 305.83 170.79 305.88L170.85 305.95C170.893 305.992 170.928 306.044 170.95 306.1C171.172 306.486 171.305 306.916 171.34 307.36C171.345 307.4 171.345 307.44 171.34 307.48C171.185 307.314 171.069 307.116 171 306.9V306.9ZM140 314.3C140.07 314.05 140.14 313.79 140.22 313.53C140.11 314.58 139.93 315.53 139.77 316.58C139.445 318.499 139.015 320.398 138.48 322.27C138.785 319.579 139.294 316.914 140 314.3V314.3ZM85.2901 187.88C85.1901 188.96 85.0001 190.19 84.7701 191.48C82.6201 189.54 81.9801 185.72 81.7701 182.63C81.5253 180.081 81.4751 177.517 81.6201 174.96C81.8501 172.13 82.7601 166.96 84.0201 165.57H84.1501C84.3974 165.594 84.6346 165.68 84.8401 165.82C85.4797 166.507 85.9068 167.365 86.0701 168.29C86.6601 170.29 86.4301 172.65 86.3901 175.12C86.2601 179.36 85.8701 183.63 85.2901 187.88ZM26.6801 208.16C28.7159 207.469 30.8167 206.986 32.9501 206.72C35.3768 206.46 37.8309 206.684 40.1701 207.38C40.4345 207.46 40.6843 207.581 40.9101 207.74C38.8301 208.02 35.9101 208.14 33.5601 208.57C32.1901 208.81 30.8501 209.14 29.5101 209.51C28.1701 209.88 27.3101 210.13 26.7601 209.79L26.6501 209.68L26.5901 209.56C26.5148 209.092 26.5456 208.614 26.6801 208.16V208.16ZM2.68012 249.94C2.74517 250.67 2.87571 251.393 3.07013 252.1C3.29456 252.84 3.61032 253.548 4.01012 254.21C3.14101 252.953 2.66423 251.467 2.64013 249.94H2.68012ZM8.15012 257.13C7.19298 256.429 6.3555 255.578 5.67013 254.61C4.99476 253.784 4.48236 252.837 4.16013 251.82C3.90827 250.912 3.75077 249.98 3.69013 249.04C3.65582 248.835 3.63245 248.628 3.62012 248.42C6.27012 250.47 10.0901 249.2 12.7001 247.01C14.1901 245.81 15.4501 244.34 16.9701 243.17C18.6024 241.912 20.5309 241.096 22.5701 240.8C24.022 240.753 25.4641 240.545 26.8701 240.18C30.2701 239.01 33.1501 236.74 36.5001 235.43L37.9401 234.77C36.9044 235.923 36.0512 237.228 35.4101 238.64C34.3301 240.98 33.8801 242.87 32.7801 244.9C32.3933 245.602 31.9484 246.271 31.4501 246.9C31.6053 246.592 31.7423 246.274 31.8601 245.95C32.1911 245.185 32.3285 244.35 32.2601 243.52C32.0791 242.324 31.4364 241.247 30.4701 240.52C29.9802 240.127 29.3926 239.874 28.7701 239.79C27.8194 239.83 26.9175 240.222 26.2401 240.89C25.3036 241.735 24.5396 242.754 23.9901 243.89C23.2445 245.056 22.6434 246.309 22.2001 247.62C21.7173 249.037 21.0445 250.383 20.2001 251.62C19.4224 253.027 18.7699 254.499 18.2501 256.02C18.0676 256.55 17.9337 257.096 17.8501 257.65C17.7906 257.854 17.7804 258.069 17.8204 258.278C17.8604 258.486 17.9494 258.682 18.0801 258.85C18.1807 258.95 18.3104 259.015 18.4506 259.037C18.5907 259.058 18.7341 259.035 18.8601 258.97C19.2534 258.727 19.5935 258.407 19.8601 258.03C20.4265 257.306 20.9475 256.548 21.4201 255.76C21.9866 254.82 22.7468 254.012 23.6501 253.39C24.2716 252.908 24.9419 252.492 25.6501 252.15C26.0801 251.95 27.3601 251.54 28.1701 251.1L28.8201 250.72L29.2701 250.56C29.5416 250.454 29.8027 250.324 30.0501 250.17C29.5101 251.17 28.7001 252.3 28.0501 253.22C27.341 254.412 26.5062 255.525 25.5601 256.54C24.4122 257.713 23.0557 258.663 21.5601 259.34C20.7127 259.769 19.8207 260.105 18.9001 260.34C17.8373 259.638 16.6181 259.209 15.3501 259.09C13.8056 258.821 12.246 258.648 10.6801 258.57H10.4401C9.6065 258.189 8.82377 257.705 8.11013 257.13H8.15012ZM24.7501 250.06L24.9701 250.15C24.1947 250.463 23.4456 250.837 22.7301 251.27C22.8836 250.807 23.0138 250.336 23.1201 249.86C23.2001 249.42 23.3101 248.96 23.4301 248.49C23.526 248.825 23.6889 249.136 23.9089 249.406C24.129 249.676 24.4015 249.899 24.7101 250.06H24.7501ZM24.1201 246.28C24.2901 245.81 24.4901 245.35 24.7001 244.89L24.8001 244.73C24.8426 245.139 25.0142 245.524 25.2901 245.83C25.4106 246.015 25.5629 246.178 25.7401 246.31C25.9362 246.414 26.1521 246.476 26.3736 246.491C26.5952 246.507 26.8175 246.475 27.0261 246.399C27.2346 246.322 27.4247 246.203 27.5839 246.048C27.7431 245.893 27.8679 245.706 27.9501 245.5C27.9238 245.782 27.8564 246.058 27.7501 246.32C27.3401 247.11 26.6301 247.32 25.6401 247.32C25.5201 247.37 25.2801 247.25 24.8601 247.11L24.5701 246.93C24.4572 246.823 24.3503 246.709 24.2501 246.59C24.2233 246.556 24.1998 246.519 24.1801 246.48L24.1201 246.28ZM24.9501 248.83L24.8301 248.65C24.7823 248.585 24.7421 248.514 24.7101 248.44C25.2651 248.615 25.8532 248.659 26.4278 248.567C27.0025 248.475 27.5477 248.25 28.0201 247.91C29.4801 246.85 29.4201 244.77 28.8101 243.24C28.6444 242.814 28.3376 242.457 27.941 242.23C27.5443 242.002 27.0817 241.918 26.6301 241.99C26.9111 241.518 27.3429 241.155 27.8556 240.96C28.3684 240.764 28.9322 240.747 29.456 240.911C29.9797 241.075 30.4328 241.411 30.742 241.864C31.0513 242.318 31.1986 242.862 31.1601 243.41C31.3701 244.41 30.7701 246.02 29.8001 247.41C29.0701 248.55 27.0801 249.63 25.7501 249.19C25.4403 249.157 25.1476 249.032 24.9101 248.83H24.9501ZM21.2601 252.93C21.3293 253.048 21.4346 253.141 21.5606 253.195C21.6867 253.249 21.8267 253.261 21.9601 253.23C21.7701 253.4 21.5801 253.58 21.4101 253.76C20.8016 254.523 20.2438 255.324 19.7401 256.16C19.5549 256.453 19.3511 256.733 19.1301 257C19.2632 256.485 19.4234 255.978 19.6101 255.48C20.0437 254.351 20.5446 253.249 21.1101 252.18L21.1901 252.05C21.1348 252.191 21.109 252.342 21.1141 252.493C21.1193 252.644 21.1554 252.793 21.2201 252.93H21.2601ZM9.21013 259.63H10.0001C11.1992 260.118 12.446 260.48 13.7201 260.71C14.3301 260.84 14.9401 261 15.5401 261.17L15.6901 261.22C15.5401 261.27 15.1501 261.4 15.0501 261.42C13.3319 261.627 11.5895 261.375 10.0001 260.69L9.91013 260.49C9.68628 260.184 9.43885 259.897 9.17013 259.63H9.21013ZM11.7701 268.06C11.1901 268.79 10.4901 269.67 9.84012 270.34C9.97257 269.054 10.0393 267.762 10.0401 266.47C10.0617 265.303 10.172 264.14 10.3701 262.99C10.4051 262.691 10.4051 262.389 10.3701 262.09C11.1002 262.311 11.8456 262.478 12.6001 262.59C13.6367 262.796 14.7081 262.744 15.7201 262.44C14.2801 264.23 12.8101 266.77 11.7301 268.06H11.7701ZM54.9501 253.8C53.7501 252.46 52.7801 251.16 52.6401 250.16C52.9301 250.31 53.2001 250.47 53.4701 250.64C54.5569 251.184 55.4351 252.069 55.9701 253.16C55.8401 253.56 55.4701 253.74 54.9101 253.8H54.9501ZM128 312.06C127.263 311.694 126.627 311.151 126.15 310.48C125.7 309.85 126.02 309.28 126.15 307.92C126.329 306.724 126.302 305.507 126.07 304.32C125.86 303.23 125.39 302.23 125.07 301.17C124.919 300.176 124.919 299.164 125.07 298.17C125.35 296.5 126.82 294.44 127.43 293.17C127.773 292.631 128.058 292.058 128.28 291.46L128.34 291.16L128.39 291.33C128.52 291.839 128.68 292.34 128.87 292.83L128.82 292.95L128.75 293.12C128.4 293.88 127.87 294.55 127.46 295.28C125.57 298.33 128.79 299.5 131.34 299.52C132.67 299.52 133.56 299.38 133.82 299.77L133.67 299.87C133.6 299.87 133.32 299.96 133.23 299.98C132.477 299.938 131.726 299.857 130.98 299.74C129.884 299.638 128.791 299.964 127.93 300.65C127.789 300.826 127.691 301.032 127.644 301.253C127.597 301.473 127.603 301.702 127.66 301.92C127.66 302.45 127.66 302.92 127.75 303.5C127.788 304.219 127.988 304.921 128.334 305.553C128.68 306.185 129.164 306.731 129.75 307.15C130.483 307.813 131.284 308.397 132.14 308.89C131.578 308.792 131.035 308.607 130.53 308.34C129.21 307.1 128.158 305.603 127.44 303.94C127.44 303.94 127.44 303.86 127.44 303.83C127.422 303.66 127.389 303.493 127.34 303.33C127.313 303.188 127.233 303.061 127.116 302.975C126.999 302.89 126.854 302.852 126.71 302.87C126.08 303.05 126.17 303.6 126.41 304.15C126.47 304.62 126.53 305.33 126.56 305.99C126.524 307.007 126.666 308.022 126.98 308.99C127.391 309.885 127.887 310.739 128.46 311.54C128.73 312 128.98 312.47 129.24 312.94C128.86 312.66 128.44 312.35 128 312.06ZM128.59 284.64C128.651 283.844 128.862 283.068 129.21 282.35C129.401 282.837 129.519 283.349 129.56 283.87C129.643 285.798 129.546 287.73 129.27 289.64C129.02 288.59 128.68 286.97 128.67 286.64C128.575 285.978 128.551 285.307 128.6 284.64H128.59ZM133.36 310.24C132.76 311.83 132.17 313.39 131.57 314.95C131.552 314.78 131.483 314.619 131.37 314.49C131.15 314.13 130.93 313.76 130.72 313.39C130.19 312.47 129.72 311.51 129.16 310.62C128.778 310.09 128.444 309.528 128.16 308.94C128.077 308.747 128.004 308.55 127.94 308.35C127.875 308.14 127.825 307.927 127.79 307.71C127.79 307.28 127.72 306.86 127.7 306.44C128.065 307.047 128.477 307.625 128.93 308.17C129.472 308.945 130.268 309.508 131.18 309.76C131.92 309.956 132.677 310.083 133.44 310.14C133.414 310.171 133.39 310.205 133.37 310.24H133.36ZM246.77 376C243.45 373.1 240.38 369.92 237.16 366.9C233.76 363.63 230.43 360.29 226.98 357.07C222.58 352.87 218.15 348.69 213.98 344.22C208.29 338.22 203.47 331.55 198.2 325.22C194.859 321.265 191.279 317.518 187.48 314C185.82 312.42 184.13 310.86 182.38 309.39C180.95 308.2 179.45 307.1 178.04 305.88C176.571 304.781 175.393 303.339 174.61 301.68C173.78 299.51 172.53 295.53 171.61 292.76C170.05 287.61 168.61 282.41 166.53 277.42C166.16 276.55 165.79 275.67 165.34 274.83C165.01 274.27 164.62 273.42 163.84 273.62C161.42 274.52 165.7 285.13 166.4 287.1C167.4 289.89 168.4 292.7 169.4 295.5C169.93 296.97 170.48 298.43 171 299.9C171.253 300.499 171.415 301.133 171.48 301.78V301.78H171.42H171.27H171.11C170.012 301.441 168.974 300.935 168.03 300.28C165.26 298.59 162.72 296.53 159.84 295.03C158.247 294.254 156.603 293.586 154.92 293.03C141.84 288.32 141.84 290.61 139.82 294.63C139.03 296.19 138.34 297.8 137.69 299.43C136.41 302.54 135.13 305.65 133.91 308.79C133.53 308.53 133.09 308.35 132.69 308.11C131.897 307.64 131.159 307.084 130.49 306.45C129.858 305.983 129.358 305.359 129.04 304.64C128.833 303.761 128.719 302.863 128.7 301.96C128.7 301.9 128.7 301.78 128.7 301.7C128.706 301.677 128.706 301.653 128.7 301.63V301.58C128.706 301.554 128.706 301.526 128.7 301.5C129.345 301.072 130.121 300.884 130.89 300.97C131.83 300.97 132.61 301.41 133.78 301.13C134.95 300.85 135.41 299.59 134.27 298.87C133.556 298.537 132.757 298.429 131.98 298.56C131.311 298.6 130.64 298.563 129.98 298.45C129.322 298.328 128.704 298.047 128.18 297.63C127.75 297.11 128.26 296.22 129.3 294.63C129.369 294.527 129.433 294.42 129.49 294.31C130.093 295.496 130.918 296.555 131.92 297.43C132.351 297.834 132.839 298.171 133.37 298.43C133.466 298.452 133.566 298.448 133.66 298.419C133.753 298.39 133.838 298.337 133.905 298.265C133.972 298.193 134.018 298.105 134.04 298.009C134.062 297.914 134.059 297.814 134.03 297.72C133.48 296.26 132.32 295.1 131.75 293.64C131.657 293.426 131.58 293.205 131.52 292.98C131.52 292.98 131.37 292.31 132.73 292.71C133.52 293 135.12 294.17 136.41 294.43C136.952 294.586 137.528 294.586 138.07 294.43C138.217 294.355 138.346 294.25 138.451 294.123C138.556 293.996 138.634 293.849 138.679 293.69C138.725 293.532 138.738 293.366 138.718 293.203C138.697 293.039 138.644 292.882 138.56 292.74C137.94 291.66 135.32 291.21 134.28 290.94C133.737 290.754 133.242 290.45 132.83 290.05C132.825 290.013 132.825 289.976 132.83 289.94C132.827 289.917 132.827 289.893 132.83 289.87V289.8C132.88 289.71 133.08 289.32 133.14 289.24L133.29 289.02L133.36 288.93C133.92 288.29 134.59 287.74 135.14 287.09C136.03 285.73 133.49 284.79 133.19 284.44C132.564 283.917 132.061 283.261 131.72 282.52L131.65 282.37C131.56 282.06 131.58 282.25 131.59 281.83C131.728 281.14 132.078 280.511 132.59 280.03L132.44 279.96C131.927 280.011 131.451 280.25 131.103 280.63C130.754 281.01 130.557 281.504 130.55 282.02C130.682 282.939 131.094 283.794 131.73 284.47C132.381 285.122 133.151 285.642 134 286C134.23 286.2 134.16 286.09 134.31 286.32C133.93 286.76 133.48 287.16 133.07 287.58C132.31 288.37 131.37 289.53 132.07 290.53C132.94 291.358 134.049 291.891 135.24 292.05C138.08 292.74 137.72 293.22 137.7 293.24C137.68 293.26 136.95 293.34 136.42 293.19C135.812 292.995 135.228 292.73 134.68 292.4C133.976 291.918 133.185 291.578 132.35 291.4C131.22 291.31 130.25 292.01 130.66 293.22C130.984 294.121 131.421 294.978 131.96 295.77C131.27 294.926 130.689 293.999 130.23 293.01C130.23 292.88 130.15 292.76 130.1 292.63C130.16 289.63 131.21 285.31 130.3 282.15C129.95 280.93 128.8 280.83 128.16 281.89C127.488 283.363 127.252 284.997 127.48 286.6C127.53 287.17 127.62 287.74 127.72 288.3C127.1 288.04 125.2 287.06 124.12 286.57C120.68 284.638 117.127 282.915 113.48 281.41C109.17 279.89 104.68 278.98 100.27 277.81C96.6401 276.81 93.0101 275.7 89.4901 274.33C86.4301 273.14 83.3901 271.92 80.3401 270.7L78.6701 270.04C78.529 270.001 78.3782 270.019 78.2501 270.09C75.8708 269.18 73.5613 268.097 71.3401 266.85C66.6149 264.397 62.2753 261.263 58.4601 257.55C57.6901 256.7 56.7501 255.75 55.8401 254.8C56.1972 254.662 56.505 254.421 56.7242 254.108C56.9433 253.794 57.0638 253.422 57.0701 253.04C56.9058 252.289 56.5023 251.612 55.9201 251.11C55.3061 250.513 54.6169 249.999 53.8701 249.58C53.427 249.301 52.9541 249.073 52.4601 248.9C50.9901 248.77 51.4601 250.8 51.8901 251.6C52.2592 252.352 52.7121 253.06 53.2401 253.71C51.8001 253.54 50.0201 253.17 48.5401 253.13C46.8101 253.13 34.4101 258.95 30.3201 259.93C28.1101 260.45 25.8401 260.63 23.6401 261.2C22.1505 261.579 20.7155 262.147 19.3701 262.89C18.1088 263.489 16.9429 264.27 15.9101 265.21L15.4501 265.62C16.328 264.692 17.0902 263.661 17.7201 262.55C18.4501 260.55 17.1601 260.9 17.0201 260.96C16.9494 260.982 16.8845 261.02 16.8301 261.07C16.7692 260.82 16.6413 260.592 16.4601 260.41C17.2373 260.578 17.9555 260.951 18.5401 261.49C18.9701 261.81 22.2901 260.19 23.2901 259.64C24.6538 258.859 25.8691 257.843 26.8801 256.64C27.7784 255.573 28.5846 254.433 29.2901 253.23C30.0081 252.179 30.653 251.08 31.2201 249.94C31.4383 249.563 31.5522 249.135 31.5501 248.7C31.9501 248.28 32.3201 247.82 32.6801 247.38C34.4101 245.31 35.1401 242.69 36.1001 240.23C36.842 238.206 38.0238 236.372 39.5601 234.86L41.2401 233.41C42.9301 232.74 44.6401 232.05 46.4001 231.15C52.4688 227.512 57.9119 222.919 62.5201 217.55C63.5201 216.38 64.5201 215.13 65.4201 213.89C66.2234 212.868 66.8954 211.749 67.4201 210.56C67.4967 210.378 67.5176 210.177 67.4803 209.983C67.4429 209.789 67.3489 209.611 67.2101 209.47C66.5501 208.92 65.3001 209.53 64.6901 209.88C63.4722 210.67 62.3453 211.592 61.3301 212.63C57.9401 215.81 54.6501 219.1 51.3301 222.34C48.7501 224.71 46.2601 227.18 43.6901 229.57L40.4901 232.36C39.9301 232.57 39.3701 232.8 38.7901 233.03C36.5301 234.03 34.2401 234.97 32.0801 236.17C29.2301 237.81 26.7001 239.36 23.9101 239.48C19.8501 239.6 16.8101 241.29 14.0101 244.13C11.7801 246.37 9.32013 248.37 6.50013 248.26C5.7937 248.23 5.1078 248.014 4.5123 247.632C3.9168 247.251 3.43298 246.719 3.11013 246.09C2.68554 245.005 2.42925 243.862 2.35013 242.7C2.06663 239.176 2.12356 235.633 2.52013 232.12C3.90013 225.29 7.86012 219.99 13.2301 215.38C16.4616 212.775 20.0605 210.662 23.9101 209.11C24.3601 208.93 24.9101 208.72 25.5101 208.52C25.3701 209.64 25.5101 210.7 26.9501 210.93C27.8714 210.942 28.7879 210.796 29.6601 210.5C30.7101 210.2 31.7701 209.93 32.8501 209.72C34.9169 209.341 37.0036 209.08 39.1001 208.94L40.9601 208.75C41.3505 208.764 41.7364 208.663 42.0701 208.46C42.7101 207.85 41.9301 207.02 41.3001 206.76C40.1632 206.212 38.937 205.873 37.6801 205.76C36.0775 205.523 34.4518 205.486 32.8401 205.65C30.861 205.897 28.907 206.315 27.0001 206.9C27.51 205.109 28.1244 203.349 28.8401 201.63C29.2005 200.527 29.4714 199.396 29.6501 198.25C30.2148 194.001 29.9842 189.684 28.9701 185.52C27.2201 177.6 15.2701 163.91 11.3501 153.07C9.86839 149.075 8.82559 144.93 8.24013 140.71C7.8853 137.362 7.70505 133.997 7.70012 130.63C7.70012 129.94 7.70012 128.99 7.70012 128.49C8.35674 129.001 8.93313 129.608 9.41013 130.29C11.3201 132.62 12.7901 136.43 13.9001 139.56C14.7201 141.92 15.6801 144.56 16.5901 146.7C17.0201 147.7 17.4501 148.7 17.9601 149.7C18.2374 150.355 18.6537 150.942 19.1801 151.42C19.2687 151.49 19.3703 151.543 19.4791 151.574C19.5879 151.605 19.7018 151.614 19.8142 151.601C19.9266 151.588 20.0353 151.553 20.1342 151.498C20.233 151.443 20.32 151.369 20.3901 151.28C20.6755 150.679 20.7529 150 20.6101 149.35C20.4033 147.477 19.925 145.645 19.1901 143.91C17.9301 140.81 15.4801 136.83 13.7301 133.43C12.9301 131.81 11.8501 130.37 11.5401 128.9C11.1201 125.65 11.1101 121.16 10.9201 117.42C10.5563 111.572 10.7036 105.703 11.3601 99.8799C11.6801 97.7899 12.1401 94.1399 12.8001 91.5899C12.9501 90.7399 13.4201 89.0699 13.5001 88.7399C13.5295 88.8172 13.5497 88.8978 13.5601 88.9799C13.6701 89.5099 13.7601 90.1299 13.8301 90.7899C13.6901 92.9299 13.5601 95.0766 13.4401 97.2299C13.1901 101.99 12.8801 106.76 12.5801 111.52C12.2801 116.28 11.8601 121.28 13.2301 125.97C13.5801 127.06 14.4101 129.44 15.6001 129.76C17.8001 129.97 16.9001 126.76 16.6001 125.51C16.3001 124.26 15.9901 122.74 15.7401 121.34C15.0324 117.289 14.6345 113.191 14.5501 109.08C14.4601 105.59 14.6401 102.08 14.7801 98.5999C14.8401 96.4899 14.9501 94.3799 14.8601 92.2699C15.0401 89.2699 15.2301 86.3399 15.4601 83.3799C15.8901 76.8899 16.5801 69.8899 17.4601 63.9399C18.0081 59.4938 18.8127 55.0831 19.8701 50.7299C21.9901 42.8099 25.1601 35.6399 28.3101 28.3699C31.7101 20.8399 35.3101 13.3699 38.7701 5.90989C36.9901 13.0899 34.9501 20.2199 32.5301 27.2199C29.3901 36.2199 25.7601 44.9999 23.1801 54.1599C22.0201 58.1599 20.8901 62.1599 20.1101 66.2899C19.5401 69.3999 19.1101 72.5399 18.7501 75.6799C18.3071 77.7012 17.9931 79.7487 17.8101 81.8099C17.7001 82.9899 17.6601 84.1699 17.6201 85.3499C17.6201 85.8099 17.6201 86.2699 17.6201 86.7399C17.6201 87.0399 17.6201 87.4899 17.9501 87.6199C18.0319 87.6525 18.1205 87.6646 18.208 87.6552C18.2956 87.6457 18.3795 87.615 18.4525 87.5657C18.5254 87.5164 18.5852 87.45 18.6267 87.3723C18.6681 87.2946 18.6899 87.208 18.6901 87.1199C19.0401 83.1199 19.4701 79.1199 19.9301 75.1799C19.9901 74.8999 20.0501 74.6299 20.1201 74.3599C21.7501 67.9999 24.4501 61.9999 26.9001 55.9399C30.9001 46.2299 34.4201 36.3499 37.9001 26.4499C38.3401 25.2499 38.7801 24.0599 39.2701 22.8799L39.3401 22.7099L39.4101 22.5499C39.5201 22.3099 39.6301 22.0599 39.7501 21.8299C39.8989 21.4857 40.1503 21.1958 40.4701 20.9999C40.5784 21.0406 40.6796 21.0979 40.7701 21.1699C41.2427 21.7757 41.5309 22.5047 41.6001 23.2699C41.7901 24.2699 41.8701 25.2699 42.0901 26.2699C42.3662 27.5535 42.7785 28.8039 43.3201 29.9999C43.935 31.1755 44.6546 32.2934 45.4701 33.3399C49.1401 38.0399 53.3201 42.3399 57.0401 46.9899C59.3201 49.7999 61.7601 52.4899 64.0401 55.3199C65.6901 57.3799 67.5101 59.9999 69.1601 62.5699C71.6701 66.7499 73.9001 71.0899 75.9901 75.4899C78.5947 80.9004 80.6387 86.5632 82.0901 92.3899C83.568 97.5458 84.2426 102.899 84.0901 108.26C84.0101 112.66 83.6301 117.05 83.6001 121.44C83.6473 125.366 84.1167 129.275 85.0001 133.1C86.7601 140.72 90.6901 147.95 93.3001 154.74C94.5842 158.203 95.5581 161.774 96.2101 165.41C96.9505 168.8 97.1864 172.281 96.9101 175.74C96.7926 177.775 96.4334 179.789 95.8401 181.74C94.7568 184.595 93.1869 187.241 91.2001 189.56C90.4001 190.51 88.8401 192.86 86.3201 192.38C86.9701 188.38 87.4301 184.3 87.7001 180.23C87.8201 178.23 87.9068 176.253 87.9601 174.3C88.0152 172.769 87.9751 171.236 87.8401 169.71C87.6715 168.486 87.3068 167.298 86.7601 166.19C86.2301 164.95 84.7001 163.76 83.3601 164.53C81.1801 166.32 80.1201 174.86 80.2201 177.75C80.4301 182.55 80.2201 188.81 84.0001 192.36C84.1787 192.524 84.3693 192.674 84.5701 192.81C84.2501 194.57 83.8901 196.42 83.5701 198.16C83.2501 199.9 83.0001 202.16 84.9001 202.85C87.3301 203.78 94.0001 197.07 97.6101 194.05C104.02 188.68 110.23 183.05 116.15 177.16C122.65 170.63 129.52 162.69 136.32 157.37C142.57 152.45 149.41 148.28 155.22 142.82C158.99 139.5 161.85 135.31 164.96 131.4C168.629 126.68 172.003 121.737 175.06 116.6C180.48 107.06 185.06 97.0799 190.26 87.4099C195.8 76.7099 201.34 66.0099 206.72 55.2299C207.83 52.9299 209.02 50.6499 210.07 48.3299V48.2999C211.9 44.3799 213.82 40.4899 215.58 36.5399C217.04 33.3499 218.38 30.0999 219.93 26.9399C221.48 23.7799 223.22 20.6399 225.02 17.5699C224.85 19.0266 224.514 20.4591 224.02 21.8399C223.02 24.7399 222.02 27.5999 220.97 30.4599C219.38 34.7499 217.97 39.0899 216.22 43.3299C214.47 47.5699 212.62 51.6099 210.74 55.9899C207.74 62.8899 204.57 69.7099 201.44 76.5399C199.53 80.6999 197.75 84.9199 195.73 89.0299C193.71 93.1399 191.4 97.1199 189.25 101.18C188.97 101.62 189.25 102.18 189.76 102.07C190.07 101.99 190.22 101.66 190.37 101.41C190.65 100.97 190.92 100.51 191.19 100.06C191.87 98.8799 192.54 97.6799 193.19 96.4899C197.62 88.3099 202.26 80.2599 206.76 72.1199C208.14 69.4999 209.53 66.8899 211.01 64.3199C212.01 62.6599 213.42 59.9199 214.67 59.6699C215.058 60.1427 215.283 60.7287 215.31 61.3399C215.338 63.9024 215.09 66.4605 214.57 68.9699C214.04 71.9699 213.35 75.0399 212.83 78.0899C212.12 82.3399 211.63 85.8999 211.26 90.2599C210.89 94.6199 210.78 98.7099 210.41 102.93C209.896 109.863 208.601 116.717 206.55 123.36C204.31 129.846 201.599 136.159 198.44 142.25C195.8 147.42 192.87 152.45 190.57 157.78C189.198 160.779 188.036 163.87 187.09 167.03C186.567 169.871 186.233 172.744 186.09 175.63C185.81 182.02 184.458 188.318 182.09 194.26C180.455 198.148 178.551 201.917 176.39 205.54C174.821 208.118 173.084 210.59 171.19 212.94C169.135 215.61 166.91 218.145 164.53 220.53C161.024 223.539 157.154 226.095 153.01 228.14C148.79 230.32 144.22 231.14 133.75 228.28C131.319 227.728 128.848 227.373 126.36 227.22C124.875 226.082 123.318 225.04 121.7 224.1C119.732 222.808 117.567 221.846 115.29 221.25C115.07 221.183 114.837 221.173 114.613 221.222C114.388 221.271 114.18 221.377 114.008 221.53C113.837 221.683 113.707 221.877 113.632 222.094C113.557 222.311 113.539 222.544 113.58 222.77C113.898 223.779 114.529 224.662 115.38 225.29C117.252 226.542 119.341 227.434 121.54 227.92C122.36 228.13 124.54 228.43 126.33 228.64C127.39 229.37 128.43 230.1 129.5 230.81C132.095 232.502 134.574 234.366 136.92 236.39C139.225 238.636 141.401 241.01 143.44 243.5C147.38 248.38 150.35 252 153.75 256.98C155.18 259.09 159.22 265.34 159.91 266.29C162.6 269.98 165.42 273.58 168.11 277.29C178.98 292.13 191.58 306 203.74 320.29C207.82 325.05 212.01 329.71 216.03 334.52C221.657 341.607 227.3 348.68 232.96 355.74C239.43 364.07 245.81 372.4 252.36 380.79C250.51 379.2 248.62 377.63 246.77 376ZM44.1701 230.87C45.6401 229.57 47.0801 228.23 48.4701 226.87C51.1201 224.36 53.7801 221.87 56.3101 219.25C58.3101 217.25 60.3101 215.31 62.3101 213.37C62.9801 212.73 64.1301 211.69 64.3601 211.53C64.9517 211.063 65.6044 210.68 66.3001 210.39C65.8682 211.268 65.3525 212.101 64.7601 212.88C59.9914 219.299 54.112 224.813 47.4001 229.16C46.3629 229.802 45.2838 230.373 44.1701 230.87V230.87ZM12.5001 133.36C12.9501 134.19 13.4101 135.02 13.8501 135.85C15.7701 139.51 17.9201 142.9 19.0401 146.57C19.3203 147.497 19.5145 148.447 19.6201 149.41C19.7013 149.796 19.7013 150.194 19.6201 150.58L19.5701 150.53C19.2756 150.174 19.0239 149.785 18.8201 149.37C16.1601 144.33 15.0001 138.54 12.5001 133.36ZM15.5901 125.23C15.8601 126.68 16.2101 127.65 15.9201 128.7C15.9201 128.7 15.9201 128.7 15.9201 128.75H15.8601H15.8001C15.7452 128.705 15.695 128.655 15.6501 128.6C15.5901 128.52 15.5101 128.38 15.4701 128.33C14.6552 127.027 14.13 125.564 13.9301 124.04C13.4922 121.417 13.358 118.753 13.5301 116.1C13.5801 114.52 13.6701 112.93 13.7701 111.35C13.9856 116.019 14.5944 120.663 15.5901 125.23V125.23ZM124 226.89C122.701 226.687 121.416 226.406 120.15 226.05C118.07 225.27 116.55 224.91 115.15 223.22C114.98 222.996 114.854 222.741 114.78 222.47C114.78 222.47 114.78 222.47 114.78 222.41H114.85C115.047 222.392 115.245 222.42 115.43 222.49C118.28 223.28 120.61 224.83 123.58 226.69L124 226.89ZM285.12 418.09C282.48 416.21 279.67 412.87 277.28 409.99C274.05 405.99 270.97 401.87 267.75 397.86L261.43 390C276.99 403.08 283.15 412.91 285.82 417.56C285.993 417.845 286.149 418.138 286.29 418.44C286.319 418.515 286.343 418.592 286.36 418.67C286.365 418.696 286.365 418.723 286.36 418.75C285.925 418.567 285.506 418.346 285.11 418.09H285.12Z" fill="#F3F2E8" stroke="#F3F2E8"/>
</svg>
