<svg width="282" height="396" viewBox="0 0 282 396" fill="none" xmlns="http://www.w3.org/2000/svg">
<g opacity="0.5" clip-path="url(#clip0_759_2192)">
<path d="M247.063 36.4426L247.063 36.4427C282.074 66.954 287.755 118.322 274.29 160.592C270.414 172.758 262.1 187.988 251.755 204.035C241.42 220.065 229.1 236.847 217.261 252.104C205.423 267.36 194.073 281.082 185.682 290.99C181.487 295.943 178.032 299.943 175.626 302.704C174.423 304.084 173.483 305.155 172.843 305.88C172.553 306.209 172.325 306.467 172.162 306.651L143.053 306.761L141.899 1.00388C142.363 1.00923 142.983 1.02013 143.746 1.04178C145.594 1.09413 148.285 1.20934 151.646 1.46081C158.37 1.96384 167.769 3.01171 178.466 5.19045C199.878 9.55185 226.392 18.4259 247.063 36.4426Z" fill="#F3F2E8" fill-opacity="0.1" stroke="#F3F1E8" stroke-width="2"/>
<path d="M168.28 305.802C167.995 306.176 167.771 306.469 167.61 306.678L143.062 306.77L141.9 1.06355C142.241 1.08742 142.662 1.11905 143.158 1.16024C144.66 1.28495 146.844 1.49724 149.565 1.84711C155.007 2.54697 162.591 3.79658 171.148 5.99448C188.284 10.3958 209.22 18.5739 224.718 33.6588C241.211 49.7137 249.22 62.9954 253.03 75.9469C256.849 88.9304 256.479 101.668 256.04 116.782C254.892 156.352 232.778 203.878 210.839 241.623C199.884 260.471 189 276.834 180.854 288.486C176.781 294.312 173.394 298.958 171.026 302.147C169.842 303.741 168.913 304.971 168.28 305.802Z" fill="#262222" stroke="#F3F1E8" stroke-width="2"/>
<path d="M140.896 0C140.896 0 168.867 5.3865 194.303 29.2206C221.466 54.6707 226.448 98.475 220.994 136.808C214.006 186.133 161.274 307.694 161.274 307.694L142.034 307.765L140.896 0Z" fill="#262222"/>
<path d="M174.481 307.77L157.212 330.655L161.22 349.989L158.729 350.029L154.873 330.691L171.51 307.814L174.481 307.77Z" fill="#F3F1E8"/>
<path opacity="0.1" d="M127 355H165.185V388.223C165.185 388.755 165.081 389.283 164.877 389.775C164.673 390.267 164.375 390.714 163.998 391.09C163.622 391.467 163.175 391.766 162.684 391.969C162.192 392.173 161.665 392.278 161.133 392.278H131.053C129.978 392.278 128.947 391.851 128.187 391.09C127.427 390.33 127 389.298 127 388.223V355Z" fill="#F3F2E8"/>
<path d="M34.6324 36.8413L34.6326 36.8411C55.2332 18.7472 81.7127 9.77373 103.108 5.33194C113.797 3.11305 123.192 2.02987 129.914 1.50157C133.274 1.23746 135.965 1.11215 137.813 1.05284C138.576 1.02833 139.196 1.0151 139.66 1.00801V306.77H110.555C110.392 306.587 110.162 306.33 109.871 306.001C109.228 305.279 108.284 304.211 107.076 302.836C104.659 300.084 101.189 296.097 96.9751 291.159C88.5463 281.282 77.144 267.603 65.2478 252.392C53.3502 237.179 40.9666 220.444 30.5715 204.453C20.1656 188.445 11.7948 173.247 7.87337 161.097C-5.75112 118.875 -0.277199 67.489 34.6324 36.8413Z" stroke="#F3F1E8" stroke-width="2"/>
<path d="M139.66 1.06731V306.774H115.112C114.95 306.566 114.724 306.273 114.438 305.901C113.802 305.072 112.868 303.846 111.678 302.256C109.298 299.076 105.894 294.443 101.799 288.633C93.6095 277.013 82.6636 260.691 71.6373 241.884C49.5561 204.223 27.263 156.781 25.9641 117.21C25.9641 117.21 25.9641 117.21 25.9641 117.21L25.9637 117.198C25.4692 102.089 25.0524 89.356 28.8215 76.3612C32.5824 63.3949 40.5425 50.0824 56.9774 33.9633C72.4119 18.8257 93.3136 10.5716 110.431 6.10706C118.979 3.87762 126.558 2.59979 131.998 1.87959C134.717 1.51956 136.9 1.29908 138.401 1.16873C138.897 1.12568 139.318 1.09247 139.66 1.06731Z" stroke="#F3F1E8" stroke-width="2"/>
<path d="M140.66 0C140.66 0 112.71 5.49334 87.3628 29.421C60.2941 54.9735 55.4808 98.7955 61.0592 137.111C68.2301 186.404 121.442 307.769 121.442 307.769H140.66V0Z" fill="#262222"/>
<path d="M113.239 33.63L113.239 33.6297C117.694 22.7955 124.678 14.5972 130.564 9.10054C133.505 6.3543 136.165 4.28893 138.086 2.91245C139.047 2.22439 139.821 1.70897 140.354 1.36716C140.468 1.29355 140.571 1.228 140.663 1.17052C140.755 1.22748 140.858 1.29245 140.973 1.3654C141.507 1.70428 142.285 2.21545 143.248 2.8983C145.177 4.26434 147.847 6.3154 150.802 9.04622C156.717 14.512 163.743 22.6751 168.256 33.4919C176.714 53.7701 181.205 83.6196 177.106 133.343C175.057 158.189 167.935 201.719 161.316 239.078C158.008 257.749 154.828 274.864 152.476 287.312C151.299 293.536 150.33 298.592 149.654 302.093C149.316 303.843 149.052 305.204 148.872 306.128L148.788 306.561C148.777 306.62 148.766 306.677 148.755 306.731L134.161 306.767C134.126 306.594 134.086 306.392 134.04 306.164C133.855 305.242 133.584 303.882 133.237 302.133C132.544 298.636 131.548 293.584 130.339 287.367C127.921 274.931 124.652 257.832 121.247 239.179C114.433 201.854 107.085 158.362 104.907 133.529C100.55 83.8321 104.873 53.9563 113.239 33.63Z" stroke="#F3F1E8" stroke-width="2"/>
<path d="M174.481 305.713H108.302V307.77H174.481V305.713Z" fill="#F3F1E8"/>
<path d="M157.39 349.726V379.997C157.39 381.073 156.963 382.104 156.203 382.865C155.443 383.626 154.413 384.053 153.338 384.053H123.253C123.492 384.904 124.003 385.654 124.707 386.188C125.411 386.723 126.27 387.012 127.154 387.013H157.235C158.309 387.013 159.34 386.586 160.1 385.825C160.86 385.065 161.287 384.033 161.287 382.958V349.726H157.39Z" fill="#DEDDD4"/>
<path d="M124.102 350.726H160.287V382.949C160.287 383.35 160.208 383.748 160.055 384.118C159.901 384.489 159.676 384.826 159.393 385.11C159.109 385.393 158.773 385.618 158.403 385.772C158.032 385.925 157.635 386.004 157.235 386.004H127.154C126.345 386.004 125.569 385.682 124.996 385.11C124.424 384.537 124.102 383.759 124.102 382.949V350.726Z" stroke="#F3F2E8" stroke-width="2"/>
<path d="M108.302 307.77L125.922 330.384L123.102 349.726H125.597L128.266 330.384L111.278 307.77H108.302Z" fill="#F3F1E8"/>
<path d="M125.922 330.384L157.212 330.655L157.946 334.199H125.366L125.922 330.384Z" fill="#F3F1E8"/>
<path opacity="0.35" d="M115.566 104.645C116.131 107.583 116.852 110.61 118.72 112.943C120.588 115.275 123.929 116.696 126.652 115.467C129.73 114.082 130.655 110.227 131.1 106.88C134.112 82.8719 129.819 57.3773 139.467 35.208C141.563 30.4003 144.321 25.0449 142.279 20.2149C139.08 12.6471 130.891 14.9575 127.563 20.2683C122.777 27.8806 119.912 37.6609 117.635 46.2971C112.594 65.3469 111.887 85.2856 115.566 104.645Z" fill="white"/>
<path opacity="0.05" d="M35.463 77.0624C33.0208 83.2948 31.1347 90.5599 34.2442 96.4984C34.907 97.7626 35.8545 98.9735 37.189 99.4854C40.1517 100.621 43.1722 97.8428 44.6179 95.0338C47.5272 89.3579 47.7318 82.7383 48.7594 76.4437C51.0165 62.9269 57.2918 50.4045 66.7667 40.5099C70.9393 36.174 75.8593 32.1364 77.8033 26.4427C78.1325 25.4901 71.5755 26.327 70.8682 26.7098C69.1689 27.6001 68.2569 29.5277 66.9535 30.8855C62.5985 35.4261 58.1278 39.7042 54.191 44.6411C46.3618 54.4491 40.0487 65.3781 35.463 77.0624Z" fill="white"/>
<path opacity="0.05" d="M11.695 83.3882C10.1781 88.2049 9.02591 93.5825 11.1167 98.1766C11.5615 99.1292 12.1754 100.069 13.1318 100.5C15.6185 101.627 18.0251 98.7553 18.986 96.1911C21.4104 89.6205 21.3792 82.4266 22.8027 75.5666C25.8499 60.9029 35.3206 48.5228 44.5245 36.726C45.0627 36.0315 39.5467 36.8328 38.9105 37.2067C37.6205 37.9635 36.544 40.1671 35.6187 41.2844C32.18 45.4289 28.7859 49.5066 25.7876 53.9984C19.7261 63.0795 14.9814 72.9745 11.695 83.3882Z" fill="white"/>
</g>
<defs>
<clipPath id="clip0_759_2192">
<rect width="282" height="396" fill="white"/>
</clipPath>
</defs>
</svg>
