<svg viewBox="0 0 282 387" fill="none" xmlns="http://www.w3.org/2000/svg">
<path d="M142.057 307.765L172.613 307.649C172.613 307.649 259.571 210.082 275.243 160.896C288.784 118.387 283.13 66.5476 247.72 35.6888C206.007 -0.667886 140.895 -0.000138269 140.895 -0.000138269L142.057 307.765Z" fill="#F3F1E8"/>
<path d="M140.895 0C140.895 0 194.059 2.4217 225.416 32.9422C258.57 65.2167 257.916 86.6381 257.04 116.811C254.727 196.496 168.102 307.676 168.102 307.676L142.065 307.774L140.895 0Z" fill="#EADFC7"/>
<path d="M140.895 0C140.895 0 168.867 5.3865 194.303 29.2206C221.466 54.6707 226.448 98.475 220.994 136.808C214.006 186.133 161.274 307.694 161.274 307.694L142.034 307.765L140.895 0Z" fill="#262222"/>
<path d="M174.481 307.769L157.212 330.655L161.22 349.989L158.729 350.029L154.872 330.691L171.51 307.814L174.481 307.769Z" fill="#564D47"/>
<path d="M140.66 307.769H110.108C110.108 307.769 22.776 210.528 6.92172 161.404C-6.77948 118.944 -1.33459 67.0864 33.9727 36.0895C75.5434 -0.422932 140.66 -2.73617e-05 140.66 -2.73617e-05V307.769Z" fill="#F3F1E8"/>
<path d="M140.66 0C140.66 0 87.5053 2.62202 56.2772 33.2494C23.2387 65.653 23.9771 87.0699 24.9646 117.243C27.5803 196.928 114.623 307.774 114.623 307.774H140.66V0Z" fill="#EADFC7"/>
<path d="M140.66 0C140.66 0 112.71 5.49334 87.3629 29.421C60.2942 54.9735 55.481 98.7955 61.0593 137.111C68.2302 186.404 121.442 307.769 121.442 307.769H140.66V0Z" fill="#262222"/>
<path d="M169.179 33.1069C160.01 11.1291 140.66 0 140.66 0C140.66 0 121.367 11.236 112.314 33.2494C103.862 53.7849 99.5472 83.8424 103.911 133.616C108.275 183.39 133.342 307.769 133.342 307.769L149.579 307.729C149.579 307.729 173.996 183.226 178.102 133.425C182.208 83.6243 177.724 53.5935 169.179 33.1069Z" fill="#FFF3D4"/>
<path d="M174.481 305.713H108.302V307.769H174.481V305.713Z" fill="#564D47"/>
<path d="M123.102 349.726H161.287V382.949C161.287 383.481 161.182 384.009 160.979 384.501C160.775 384.993 160.476 385.44 160.1 385.816C159.724 386.193 159.277 386.492 158.785 386.696C158.294 386.899 157.767 387.004 157.235 387.004H127.154C126.079 387.004 125.049 386.577 124.289 385.816C123.529 385.056 123.102 384.024 123.102 382.949V349.726Z" fill="#564D47"/>
<path d="M157.39 349.726V379.997C157.39 381.073 156.963 382.104 156.203 382.865C155.443 383.626 154.413 384.053 153.338 384.053H123.253C123.492 384.904 124.003 385.654 124.707 386.188C125.411 386.723 126.27 387.012 127.154 387.013H157.235C158.309 387.013 159.34 386.586 160.1 385.825C160.86 385.065 161.287 384.033 161.287 382.958V349.726H157.39Z" fill="#433C37"/>
<path d="M108.302 307.769L125.922 330.384L123.102 349.726H125.597L128.266 330.384L111.278 307.769H108.302Z" fill="#564D47"/>
<path d="M125.922 330.384L157.212 330.655L157.946 334.199H125.366L125.922 330.384Z" fill="#564D47"/>
<path opacity="0.35" d="M115.566 104.645C116.131 107.583 116.852 110.61 118.72 112.943C120.588 115.275 123.929 116.696 126.652 115.467C129.73 114.082 130.655 110.227 131.1 106.88C134.112 82.8719 129.819 57.3773 139.468 35.208C141.563 30.4003 144.321 25.0449 142.279 20.2149C139.081 12.6471 130.891 14.9575 127.564 20.2683C122.777 27.8806 119.912 37.6609 117.635 46.2971C112.594 65.3469 111.887 85.2856 115.566 104.645Z" fill="white"/>
<path opacity="0.05" d="M71.4686 93.0393C71.6688 96.0486 72.3583 99.5565 75.0986 100.83C77.1315 101.778 79.6538 101.021 81.3264 99.4942C82.999 97.9673 83.8976 95.826 84.5782 93.7071C89.3158 78.7673 84.2579 61.4192 91.5623 47.5523C96.3265 38.5066 106.883 32.341 109.823 22.4272C98.4218 16.5109 85.4857 40.0112 81.3531 47.8639C74.0398 61.6329 70.45 77.4318 71.4686 93.0393Z" fill="white"/>
<path opacity="0.05" d="M35.463 77.0624C33.0208 83.2948 31.1346 90.5599 34.2441 96.4984C34.9069 97.7626 35.8544 98.9735 37.189 99.4854C40.1516 100.621 43.1721 97.8428 44.6179 95.0338C47.5271 89.3579 47.7318 82.7383 48.7594 76.4437C51.0165 62.9269 57.2917 50.4045 66.7666 40.5099C70.9393 36.174 75.8593 32.1364 77.8032 26.4427C78.1324 25.4901 71.5754 26.327 70.8681 26.7098C69.1688 27.6001 68.2569 29.5277 66.9535 30.8855C62.5985 35.4261 58.1278 39.7042 54.1909 44.6411C46.3617 54.4491 40.0487 65.3781 35.463 77.0624Z" fill="white"/>
<path opacity="0.05" d="M11.695 83.3882C10.178 88.2049 9.02589 93.5825 11.1167 98.1766C11.5615 99.1292 12.1754 100.069 13.1318 100.5C15.6185 101.627 18.0251 98.7553 18.9859 96.1911C21.4103 89.6205 21.3792 82.4266 22.8027 75.5666C25.8499 60.9029 35.3206 48.5228 44.5244 36.726C45.0627 36.0315 39.5466 36.8328 38.9105 37.2067C37.6205 37.9635 36.5439 40.1671 35.6187 41.2844C32.18 45.4289 28.7859 49.5066 25.7876 53.9984C19.7261 63.0795 14.9814 72.9745 11.695 83.3882Z" fill="white"/>
<path d="M276.889 158.924C281.155 145.529 282.267 114.599 281.951 116.949C280.132 130.514 278.593 133.216 277.667 136.14C269.39 162.259 257.302 187.01 241.795 209.593C232.889 222.572 222.882 234.758 211.884 246.016C198.93 259.264 184.668 271.177 171.603 284.3C165.767 290.172 159.766 297.74 160.833 305.704L174.259 305.655C174.259 305.655 261.217 208.092 276.889 158.924Z" fill="#EADFC7"/>
<path d="M144 306H150.136C150.136 306 174.422 181.482 178.505 131.682C179.39 120.894 179.522 110.038 179.65 101C175.425 108.039 176.156 122.573 174.895 129.968C172.913 141.614 170.755 153.238 168.1 164.751C164.831 178.953 160.819 192.981 157.966 207.272C155.754 218.376 154.245 229.608 152.741 240.831C149.83 262.548 146.917 284.271 144 306Z" fill="#EADFC5"/>
<path d="M169.486 305.686C169.486 305.686 254.242 194.012 257.249 114.407C256.199 114.973 249.962 136.332 247.907 143.708C244.829 154.699 239.139 162.548 235.194 173.249C225.509 199.514 216.603 212.611 196.701 246.403C185.638 265.189 168.391 283.098 162.657 304.137C162.512 304.663 162.397 305.196 162.31 305.735L169.486 305.686Z" fill="#DBC8AF"/>
<path d="M162.488 305.951C162.488 305.951 214.903 184.027 221.835 134.562C223.347 123.788 223.113 112.104 222.75 101C219.877 105.041 220.257 117.337 219.514 120.891C216.367 135.901 212.746 150.8 208.652 165.587C200.355 195.544 190.14 224.925 178.07 253.543C171.177 269.887 163.689 285.961 155.605 301.763C154.905 303.106 154.366 304.528 154 306L162.488 305.951Z" fill="#FFF3D4"/>
</svg>
